<?xml version="1.0" standalone="no"?>
<!DOCTYPE svg PUBLIC "-//W3C//DTD SVG 20010904//EN"
 "http://www.w3.org/TR/2001/REC-SVG-20010904/DTD/svg10.dtd">
<svg version="1.0" xmlns="http://www.w3.org/2000/svg"
 width="916.000000pt" height="557.000000pt" viewBox="0 0 916.000000 557.000000"
 preserveAspectRatio="xMidYMid meet">
<metadata>
Created by potrace 1.16, written by Peter Selinger 2001-2019
</metadata>
<g transform="translate(0.000000,557.000000) scale(0.100000,-0.100000)"
fill="#000000" stroke="none">
<path d="M3760 5201 c-47 -31 -52 -38 -39 -63 l13 -23 6 25 c6 23 7 23 12 5 3
-11 -1 -26 -8 -33 -18 -17 -21 -15 -28 13 -4 14 -10 25 -14 25 -10 0 -81 -110
-232 -364 -69 -115 -137 -218 -151 -228 -19 -14 -45 -19 -114 -21 l-90 -2 -5
165 c-3 103 -10 173 -17 186 -21 36 -71 73 -116 85 -50 13 -734 2 -743 -12 -3
-5 3 -9 13 -9 15 0 16 -2 3 -10 -8 -5 -10 -10 -5 -10 6 0 9 -58 7 -159 -2 -97
1 -167 7 -179 7 -14 7 -24 -2 -34 -10 -13 -50 -17 -208 -22 -229 -7 -309 -23
-436 -87 -152 -76 -285 -210 -363 -364 -57 -112 -80 -214 -80 -347 l0 -108
971 0 971 0 -17 -27 c-10 -15 -33 -54 -51 -87 l-33 -61 -919 -3 -920 -2 -6
-23 c-3 -12 -5 -564 -3 -1227 l2 -1205 24 -85 c81 -294 294 -510 578 -587 l98
-27 2120 -2 c1166 0 2514 2 2995 6 852 7 877 8 944 28 246 76 425 232 518 453
49 116 58 208 57 548 -1 275 -11 504 -19 426 -1 -16 -2 -34 -1 -39 1 -5 -1
-22 -4 -37 -6 -27 -10 -29 -56 -29 -36 0 -51 4 -56 16 -4 11 -13 14 -30 9 -33
-8 -47 3 -28 21 20 21 19 34 -4 34 -10 0 -21 9 -24 20 -3 11 -12 20 -21 20 -9
0 -16 5 -16 10 0 6 -7 10 -15 10 -19 0 -64 49 -65 69 0 9 -8 12 -26 8 -20 -3
-27 1 -34 19 -6 15 -15 22 -24 18 -8 -3 -24 -1 -35 6 -20 10 -20 12 -5 35 14
22 14 25 1 25 -8 0 -17 10 -21 23 -5 17 -8 19 -15 8 -6 -9 -22 -12 -57 -8 -27
3 -50 6 -51 6 -13 3 2 23 22 31 14 5 25 16 25 24 0 12 -16 16 -67 18 -52 2
-68 7 -71 19 -1 9 7 20 20 26 21 9 20 10 -17 17 -53 10 -88 33 -81 53 8 20
-31 48 -62 44 -37 -4 -51 14 -41 57 6 28 5 41 -6 52 -13 12 -15 12 -15 -8 0
-15 -6 -22 -18 -22 -26 0 -43 20 -33 39 5 9 5 26 0 38 -7 18 -13 21 -48 16
-34 -5 -41 -3 -41 11 0 9 -4 16 -10 16 -5 0 -10 9 -10 19 0 10 -7 21 -15 25
-8 3 -15 16 -15 29 0 15 -6 23 -19 24 -10 1 -35 9 -56 17 -32 14 -37 20 -33
41 4 20 1 26 -18 31 -13 3 -24 10 -24 16 0 5 -8 8 -17 6 -14 -2 -18 4 -18 25
1 19 -4 27 -16 27 -10 0 -20 -6 -22 -12 -3 -7 -6 7 -6 31 -1 24 -4 41 -8 37
-4 -3 -6 -25 -4 -48 1 -24 -1 -39 -6 -35 -4 5 -8 22 -10 40 -1 18 -5 46 -8 62
-4 17 -8 42 -9 57 0 14 -3 29 -6 32 -3 2 -4 -79 -2 -182 8 -368 -51 -659 -198
-978 -153 -333 -441 -667 -761 -881 -282 -190 -604 -307 -956 -348 -159 -19
-261 -19 -433 0 -392 41 -737 173 -1040 399 -128 95 -346 315 -452 456 -282
375 -421 824 -405 1305 10 311 74 571 207 842 106 215 223 381 403 569 202
212 491 404 750 500 64 24 74 30 55 35 -23 7 -23 7 -1 8 16 1 21 6 17 19 -2 9
1 7 7 -6 7 -13 18 -21 27 -17 7 3 18 5 23 5 6 0 7 4 4 10 -3 5 0 8 7 5 7 -3
33 2 58 9 l45 15 -70 -6 c-52 -3 -66 -2 -55 6 11 8 4 10 -30 8 -42 -2 -46 0
-62 32 -12 23 -28 38 -50 46 -27 8 -33 15 -33 37 1 15 -5 30 -12 32 -8 4 -13
-3 -13 -19 0 -30 -20 -33 -27 -5 -3 11 -11 20 -18 20 -7 0 -16 7 -19 16 -3 8
-10 13 -15 10 -4 -3 -16 3 -26 14 -10 11 -26 20 -37 20 -10 0 -18 7 -18 18 0
9 -9 23 -19 29 -17 10 -18 16 -8 37 6 13 16 22 22 19 5 -2 2 2 -9 11 -13 11
-24 12 -37 6 -24 -13 -29 -13 -29 5 0 8 -4 15 -9 15 -4 0 -20 9 -35 21 -26 20
-26 22 -11 45 17 26 13 44 -11 44 -10 0 -14 -12 -14 -40 0 -43 -21 -63 -43
-41 -8 8 -7 11 6 11 10 0 17 8 17 20 0 11 -4 20 -10 20 -13 0 -13 37 0 45 6 4
8 11 5 16 -4 5 -1 9 4 9 6 0 11 -7 11 -15 0 -8 4 -15 9 -15 6 0 6 12 -1 30 -8
25 -14 29 -31 24 -16 -5 -19 -3 -15 14 4 15 1 18 -12 15 -10 -3 -21 1 -25 8
-5 7 -4 10 2 6 6 -4 16 0 23 8 19 22 9 25 -20 6z"/>
<path d="M4850 4374 c-198 -25 -354 -60 -482 -108 -343 -129 -640 -358 -872
-671 -233 -315 -348 -695 -333 -1099 18 -493 205 -904 570 -1252 223 -213 477
-356 767 -433 150 -39 209 -49 364 -61 304 -23 626 38 904 170 390 187 692
481 882 859 79 159 124 282 157 439 25 117 27 146 28 357 0 200 -3 245 -23
349 -41 207 -108 385 -213 561 -325 545 -900 876 -1549 890 -91 2 -181 1 -200
-1z m355 -95 c285 -27 550 -121 790 -280 602 -396 888 -1138 710 -1839 -56
-223 -184 -476 -332 -660 -256 -317 -620 -546 -1004 -629 -102 -22 -395 -55
-410 -45 -12 7 -12 1504 0 1523 10 16 103 -78 552 -554 329 -350 349 -370 400
-395 132 -68 260 51 204 188 -25 60 -82 114 -887 848 -47 43 -87 83 -87 87 -1
8 46 55 149 153 57 54 86 64 180 64 104 0 150 12 217 57 67 44 251 232 427
436 126 145 44 77 -183 -152 -140 -142 -245 -240 -275 -257 -43 -24 -65 -29
-162 -35 -145 -9 -177 -24 -301 -142 l-94 -91 -40 41 -40 40 110 112 c61 63
119 131 131 156 14 29 27 86 35 160 16 138 36 183 119 272 97 104 327 281 450
346 37 20 54 24 68 16 10 -5 18 -13 18 -17 -1 -4 -58 -55 -128 -114 -122 -104
-336 -310 -367 -354 -13 -19 -13 -23 1 -35 13 -10 23 -5 67 37 29 28 124 117
212 199 185 173 245 234 245 251 0 6 -16 23 -35 38 l-34 26 -103 -56 c-183
-101 -277 -171 -416 -310 -94 -94 -118 -147 -137 -295 -12 -101 -17 -117 -50
-164 -42 -62 -212 -231 -227 -227 -18 5 -46 46 -40 60 3 8 -1 18 -9 23 -10 6
-10 9 -1 9 9 0 12 118 12 556 0 339 -4 553 -9 549 -13 -8 -21 23 -23 89 -1 31
-6 56 -10 56 -5 0 -8 -32 -7 -70 1 -39 -1 -73 -4 -77 -4 -3 -8 5 -8 18 -1 13
-2 29 -4 34 -1 6 -3 19 -4 30 -1 17 -4 16 -19 -10 -18 -29 -18 -30 0 -49 10
-12 16 -28 12 -38 -3 -10 -1 -18 5 -18 6 0 11 -4 11 -10 0 -17 -28 -11 -34 8
-3 9 -4 6 -2 -9 2 -25 -20 -57 -32 -44 -3 3 -1 9 5 13 6 4 13 21 15 37 2 17 8
29 16 27 6 -1 12 2 12 8 0 13 -17 13 -25 0 -4 -6 -11 -8 -16 -4 -6 3 -7 -4 -4
-19 9 -33 -24 -67 -64 -67 -45 0 -192 -30 -231 -47 -19 -9 -41 -16 -47 -17
-17 -1 -18 -19 -2 -25 7 -2 9 1 5 8 -4 6 -4 10 1 9 4 -1 24 4 45 10 31 11 42
10 75 -3 29 -12 55 -14 116 -9 42 4 81 12 84 18 17 26 11 36 -20 35 -38 -2
-99 -16 -74 -18 9 0 17 -5 17 -10 0 -4 -18 -3 -40 3 -35 9 -38 11 -20 18 11 4
44 10 72 13 29 4 55 8 59 11 13 8 40 -9 35 -22 -3 -8 0 -11 10 -7 16 6 19 20
5 25 -5 2 1 10 12 19 22 16 22 16 24 -38 1 -47 -1 -52 -13 -42 -12 10 -16 8
-21 -9 -3 -12 -9 -19 -14 -16 -5 3 -9 0 -9 -5 0 -6 5 -11 11 -11 8 0 8 -4 1
-12 -6 -7 -8 -26 -5 -41 4 -21 8 -25 14 -15 5 8 8 -13 7 -52 -1 -48 -2 -54 -5
-22 -2 23 -8 42 -14 42 -5 0 -9 11 -9 25 0 14 -4 25 -10 25 -5 0 -10 -16 -10
-35 0 -33 -2 -35 -36 -35 -19 0 -42 6 -50 14 -17 18 -19 82 -1 89 6 3 1 6 -13
7 -23 2 -22 3 8 11 17 5 32 14 32 20 0 6 -9 7 -22 2 -35 -12 -102 -7 -136 10
-28 14 -34 13 -69 -3 -21 -10 -58 -21 -83 -24 -45 -6 -45 -6 -15 8 37 17 29
20 -14 5 -32 -11 -40 -24 -18 -32 6 -2 9 -8 4 -12 -4 -5 -13 -3 -19 3 -7 7
-19 12 -27 11 -10 0 -12 -2 -4 -6 9 -3 7 -11 -7 -26 -23 -24 -18 -37 5 -13 9
9 21 16 26 16 6 0 3 -7 -5 -16 -25 -25 -19 -25 25 -3 23 13 38 27 35 34 -3 8
2 11 14 8 10 -3 21 0 24 6 4 6 15 11 24 11 14 0 13 -2 -3 -14 -10 -7 -16 -20
-12 -28 3 -9 1 -20 -5 -26 -7 -7 -6 -16 1 -30 9 -17 6 -23 -17 -38 -28 -18
-39 -19 -35 -3 2 5 0 8 -5 7 -15 -3 -42 15 -36 24 4 6 10 5 16 -3 8 -11 9 -10
4 4 -3 9 -1 17 4 17 6 0 10 5 10 11 0 7 -9 5 -24 -5 -22 -14 -27 -14 -56 0
-22 12 -28 19 -21 28 7 9 3 12 -17 11 -15 -1 -38 4 -52 11 -31 15 -81 60 -74
67 3 3 1 8 -5 12 -6 3 -11 1 -11 -5 0 -6 -11 -3 -26 7 -27 17 -27 17 -55 -17
-28 -33 -29 -34 -30 -10 -1 24 -1 24 -14 -5 -12 -26 -14 -27 -15 -8 0 12 7 29
16 37 8 9 12 16 7 16 -4 0 -1 4 7 10 17 11 10 20 -17 23 -18 1 -22 11 -24 70
0 29 19 45 46 39 27 -5 29 -27 4 -27 -8 0 -20 -4 -28 -9 -11 -7 -11 -10 2 -18
9 -4 14 -17 12 -29 -3 -17 0 -19 18 -14 12 4 30 9 40 12 10 3 16 10 14 16 -19
45 -19 47 -2 47 9 0 13 5 10 10 -3 6 -1 10 4 10 15 0 14 -13 -1 -29 -11 -11
-10 -13 4 -8 12 4 15 0 13 -19 -2 -19 2 -24 19 -24 16 0 17 -3 7 -9 -9 -6 -10
-11 -3 -15 6 -4 18 4 27 18 13 19 14 29 6 45 -17 30 -13 41 13 41 13 0 29 6
36 14 6 8 18 12 26 9 22 -8 63 17 66 41 3 18 9 20 41 18 40 -4 45 1 22 25 -8
8 -13 19 -10 24 4 5 -5 9 -19 9 -14 0 -29 -8 -35 -17 -16 -29 -36 -2 -21 27
10 18 9 24 -1 31 -20 12 -23 11 -53 -12 -21 -16 -24 -24 -15 -30 7 -4 17 -5
21 -3 4 3 8 0 8 -5 0 -6 -11 -11 -24 -11 -14 0 -36 -4 -50 -10 -17 -6 -27 -6
-32 2 -4 7 -3 8 4 4 7 -4 12 -2 12 3 0 6 -5 11 -11 11 -5 0 -7 5 -3 12 6 9 9
9 12 0 2 -7 12 -12 23 -12 12 0 16 5 13 15 -4 8 1 17 9 21 9 3 18 12 21 20 4
11 2 12 -14 4 -10 -5 -30 -14 -44 -20 -21 -8 -24 -7 -19 6 5 14 3 14 -16 3
-11 -8 -21 -17 -21 -21 0 -5 -4 -8 -10 -8 -19 0 -10 16 19 33 15 9 31 14 35
10 3 -3 6 -2 6 4 0 28 317 150 480 184 52 11 136 22 185 26 50 3 101 9 115 13
27 8 85 5 255 -11z m-1195 -344 c0 -5 -4 -4 -9 3 -6 10 -14 6 -33 -16 -14 -16
-34 -33 -46 -36 -21 -7 -31 -26 -14 -26 4 0 8 -9 8 -21 0 -16 -5 -19 -23 -14
l-23 5 20 -34 c14 -27 16 -34 5 -29 -20 7 -19 -4 1 -24 13 -14 17 -14 24 -3 5
8 6 18 4 22 -3 4 2 5 10 2 10 -4 16 -19 17 -43 0 -21 3 -30 7 -21 8 17 42 26
42 10 0 -5 -6 -10 -14 -10 -9 0 -14 -9 -14 -22 4 -58 -2 -80 -22 -85 -11 -3
-20 -10 -20 -17 0 -6 -5 -4 -10 4 -7 12 -13 12 -27 4 -20 -12 -21 -26 -2 -33
7 -2 9 1 5 8 -5 8 -1 8 18 0 24 -11 24 -13 8 -34 -14 -18 -22 -21 -40 -14 -29
11 -32 11 -32 1 0 -10 61 -35 78 -33 13 2 198 -159 369 -322 81 -77 95 -86
113 -77 11 6 20 16 20 22 0 7 -101 112 -225 234 -124 121 -225 228 -225 236 0
60 81 2 343 -245 162 -152 197 -175 205 -136 2 9 -89 107 -227 244 -216 215
-257 267 -197 249 26 -8 197 -128 291 -205 97 -79 218 -206 242 -254 27 -54
33 -82 43 -203 8 -98 10 -107 46 -159 55 -79 368 -378 949 -903 394 -357 405
-368 405 -448 0 -52 -34 -82 -93 -82 -54 0 -88 24 -182 127 -91 100 -533 570
-669 713 -333 347 -423 432 -518 483 -45 24 -61 27 -147 27 -85 0 -104 3 -150
27 -86 42 -358 317 -500 505 -38 50 -41 59 -29 77 7 12 15 21 19 21 3 0 82
-71 175 -157 252 -234 302 -276 319 -269 8 3 15 11 15 18 0 7 -97 110 -215
228 -118 118 -215 220 -215 227 0 7 -11 20 -25 29 -31 20 -32 40 -4 47 18 5
19 8 8 20 -15 16 -34 12 -24 -4 3 -5 -1 -6 -9 -3 -9 3 -16 10 -16 15 0 5 -13
9 -30 9 -16 0 -30 5 -30 10 0 6 7 10 16 10 8 0 21 6 28 13 16 16 29 50 16 42
-13 -8 -50 3 -50 15 0 7 29 18 69 26 18 4 44 -23 35 -37 -5 -8 -9 -8 -14 1 -5
9 -9 9 -14 1 -4 -6 -2 -11 3 -11 6 0 11 -7 11 -15 0 -18 -16 -20 -23 -2 -3 6
-5 0 -4 -14 1 -20 5 -25 19 -21 9 2 20 13 23 23 4 10 15 19 26 19 11 0 19 7
20 18 0 10 6 4 15 -15 17 -39 28 -44 14 -7 -6 15 -6 23 -1 19 5 -3 12 -2 15 3
7 11 -6 30 -24 34 -8 2 -21 9 -29 17 -11 9 -16 10 -19 2 -8 -25 -22 -9 -22 27
0 27 -3 33 -10 22 -7 -11 -10 -11 -10 -2 0 7 -4 10 -10 7 -5 -3 -10 -2 -10 3
0 6 7 12 15 16 22 8 18 33 -6 39 -17 4 -19 3 -10 -6 15 -15 14 -32 -1 -19 -10
8 -13 3 -13 -23 0 -18 5 -31 10 -29 6 3 16 -5 23 -17 8 -12 9 -18 3 -14 -6 3
-11 0 -11 -7 0 -9 -3 -9 -10 2 -8 12 -10 12 -10 1 0 -9 -7 -11 -22 -7 -13 4
-27 8 -33 9 -5 2 -14 5 -20 9 -6 3 -10 -12 -11 -38 -1 -31 2 -44 12 -44 17 0
18 -12 3 -27 -11 -11 7 -53 23 -53 4 0 5 -7 2 -15 -4 -8 -2 -15 4 -15 5 0 12
-11 14 -25 3 -14 1 -25 -3 -25 -5 0 -9 5 -9 10 0 18 -25 6 -32 -15 -10 -32 -9
-67 2 -60 6 3 15 3 22 -1 8 -5 6 -10 -7 -14 -20 -7 -47 9 -38 23 2 4 -2 7 -9
7 -9 0 -9 3 2 10 13 8 12 10 -3 10 -15 0 -16 3 -7 21 7 11 9 23 6 27 -3 3 -6
0 -6 -6 0 -6 -13 -25 -30 -42 -30 -30 -47 -40 -34 -18 4 7 3 8 -5 4 -6 -4 -9
-11 -6 -15 2 -5 -4 -16 -15 -26 -19 -18 -20 -17 -20 3 0 12 -4 22 -9 22 -5 0
-4 11 2 25 7 14 18 23 25 20 7 -3 10 0 7 5 -3 6 3 10 15 10 14 0 19 -4 15 -12
-4 -7 7 3 23 22 25 28 32 32 45 22 12 -10 15 -8 19 12 4 17 1 23 -9 19 -9 -4
-13 5 -13 31 0 36 -24 76 -47 76 -14 0 -38 -39 -29 -47 3 -3 16 -5 30 -5 22 0
23 -3 13 -19 -15 -24 -31 -25 -23 -2 4 10 4 14 0 10 -4 -4 -13 -2 -20 4 -8 7
-14 7 -19 -1 -3 -5 1 -10 11 -10 14 0 14 -2 3 -16 -12 -15 -14 -14 -22 10 -7
20 -3 33 20 63 45 61 96 113 105 107 4 -3 8 0 8 6 0 12 71 92 77 87 2 -2 26
18 53 44 28 26 63 56 80 66 16 9 30 22 30 28 0 5 5 3 10 -5 5 -8 10 -19 10
-25z m-225 -618 c27 -38 41 -97 23 -97 -10 0 -38 -55 -38 -72 1 -7 7 0 14 17
10 24 13 26 19 12 3 -9 2 -19 -3 -22 -13 -8 -13 -25 0 -25 6 0 10 7 10 15 0 8
4 15 9 15 4 0 7 12 5 28 l-4 27 9 -29 c8 -21 6 -34 -5 -52 -9 -13 -13 -28 -9
-34 3 -5 0 -10 -7 -11 -10 0 -10 -2 0 -6 6 -2 12 -11 12 -20 0 -12 -2 -12 -16
1 -8 9 -20 16 -26 16 -6 0 -8 11 -4 28 5 22 4 24 -4 9 -6 -9 -15 -15 -19 -12
-12 7 -76 -173 -73 -207 0 -10 -3 -18 -9 -18 -5 0 -9 -12 -8 -27 0 -25 1 -26
10 -8 8 17 9 17 4 -5 -2 -14 -5 -32 -6 -40 0 -10 -3 -9 -8 4 -4 12 -7 -14 -7
-61 1 -60 4 -79 13 -76 7 3 11 9 8 13 -3 5 -2 15 1 24 5 12 20 16 61 16 46 0
54 3 49 16 -3 9 -6 20 -6 25 0 5 -9 9 -20 9 -11 0 -20 -7 -20 -16 0 -10 -7 -7
-25 12 -34 37 -32 44 16 44 48 0 69 -18 69 -59 0 -24 4 -31 20 -31 11 0 20 7
20 15 0 16 68 21 129 9 30 -6 45 -34 18 -34 -7 0 -22 -6 -32 -14 -18 -13 -17
-14 13 -11 18 1 32 -1 32 -6 0 -4 -26 -10 -57 -12 -32 -2 41 -3 162 -3 121 0
195 1 165 3 -30 3 -58 10 -62 16 -6 9 -8 9 -8 0 0 -7 -12 -13 -27 -13 -22 0
-24 3 -14 13 6 6 16 13 22 13 5 1 15 2 22 3 8 1 8 4 -3 10 -8 6 -17 8 -21 6
-12 -8 3 45 17 56 11 9 15 8 20 -5 3 -9 13 -16 21 -16 8 0 12 4 8 9 -14 23 21
21 69 -3 47 -24 67 -27 162 -29 96 -2 113 -5 141 -26 17 -13 33 -31 36 -41 3
-10 18 -21 36 -25 17 -3 42 -21 57 -38 l27 -32 -754 -3 c-415 -1 -760 0 -766
3 -15 5 -17 61 -3 70 6 3 10 32 10 64 0 66 50 320 78 400 18 50 20 51 24 23 2
-16 1 -38 -3 -48 -7 -18 -8 -18 -9 1 -1 11 -8 -2 -16 -30 -18 -64 -17 -92 2
-40 12 35 13 36 9 9 -2 -18 -7 -43 -11 -58 -3 -14 -2 -26 3 -26 5 0 6 -19 4
-42 l-5 -43 -7 35 -6 35 -2 -43 c-1 -30 4 -44 14 -48 8 -4 15 -10 15 -15 0 -4
-7 -6 -16 -2 -14 5 -16 1 -12 -25 2 -17 0 -33 -6 -35 -5 -2 -2 -6 7 -10 9 -3
16 -3 16 1 -1 4 -1 16 0 27 2 19 2 19 16 2 10 -14 25 -18 57 -17 78 3 89 1 86
-16 -2 -10 3 -19 10 -21 18 -7 15 44 -3 51 -11 4 -14 18 -13 48 l1 43 4 -43
c3 -33 8 -42 19 -38 12 4 14 -7 13 -60 -1 -35 1 -68 5 -71 3 -3 7 18 7 48 2
73 6 106 19 142 12 37 5 49 -10 16 -9 -21 -10 -18 -6 16 3 21 15 52 26 67 14
19 16 28 8 28 -14 0 -38 -44 -38 -68 0 -7 -4 -11 -9 -8 -11 7 -2 46 10 46 5 0
9 9 9 19 0 11 6 21 13 24 9 3 9 7 0 19 -13 15 -8 28 9 28 5 0 6 -4 3 -10 -3
-5 -2 -10 4 -10 6 0 7 -7 4 -17 -4 -11 -3 -14 5 -9 7 4 12 15 12 25 0 10 11
46 25 80 15 35 24 68 22 74 -2 7 4 18 14 27 23 20 71 108 65 119 -6 9 15 61
24 61 3 0 19 -19 35 -43z m147 -215 c-3 -10 0 -13 9 -10 14 5 25 -5 69 -57 14
-16 17 -23 8 -16 -12 8 -18 9 -18 3 0 -6 10 -17 23 -23 12 -7 47 -37 77 -68
31 -31 77 -75 104 -98 26 -23 45 -47 41 -53 -10 -17 -25 -11 -25 10 0 18 -3
19 -20 10 -11 -6 -18 -15 -15 -21 4 -5 2 -9 -4 -9 -18 0 -23 20 -7 26 9 3 16
10 16 16 0 5 -4 6 -10 3 -5 -3 -10 -1 -10 4 0 6 5 11 11 11 17 0 0 19 -32 35
-19 11 -35 13 -47 7 -26 -14 -100 -25 -82 -13 8 6 25 11 38 11 12 0 22 3 23 8
0 4 2 19 4 34 2 15 -1 30 -6 33 -5 3 -6 -1 -3 -9 4 -12 0 -16 -16 -16 -12 0
-30 -5 -41 -10 -13 -7 -19 -7 -19 0 0 5 3 10 8 10 4 0 14 11 23 23 15 20 15
24 1 37 -14 13 -15 12 -10 -1 8 -20 -2 -35 -29 -43 -25 -8 -30 -2 -35 43 -2
21 2 36 10 38 8 3 12 -6 12 -26 0 -33 14 -41 24 -15 4 9 0 24 -8 33 -8 9 -19
28 -25 43 -7 19 -15 26 -26 22 -8 -4 -17 1 -21 9 -3 9 -12 13 -21 10 -11 -4
-14 -2 -9 5 4 7 14 12 22 12 8 0 12 5 9 11 -4 6 -14 8 -22 5 -8 -3 -11 -1 -8
4 3 6 1 10 -4 10 -6 0 -11 -8 -11 -18 0 -19 -18 -42 -34 -42 -5 0 -6 3 -3 7 4
3 1 13 -6 22 -11 14 -10 14 6 2 26 -21 33 -5 14 34 -9 19 -12 35 -7 35 6 0 10
5 10 11 0 5 -6 7 -12 3 -7 -4 -10 -4 -6 1 4 4 3 15 -3 24 -7 9 13 -11 44 -43
34 -37 53 -65 49 -74z m959 -654 l38 -43 -33 -35 c-29 -32 -245 -263 -392
-420 -33 -36 -121 -130 -195 -210 -262 -283 -317 -328 -387 -314 -61 12 -88
82 -58 146 20 42 141 159 396 384 102 90 359 323 465 421 66 61 122 112 124
112 3 1 22 -18 42 -41z"/>
<path d="M6005 3548 c-147 -118 -465 -421 -465 -442 0 -13 20 -36 30 -36 4 0
33 26 66 58 33 31 138 127 233 212 157 140 211 195 211 215 0 4 -8 -2 -17 -13
-17 -19 -231 -209 -358 -317 -32 -27 -63 -54 -69 -60 -36 -33 -44 -32 -11 1
71 69 377 349 390 357 18 10 59 67 48 66 -4 0 -30 -18 -58 -41z"/>
<path d="M6159 3461 c19 -12 12 -20 -82 -102 -45 -39 -98 -85 -118 -103 -39
-34 -82 -69 -115 -95 -25 -20 115 116 214 206 73 68 96 102 43 64 -16 -11
-100 -85 -187 -163 -86 -79 -185 -167 -218 -196 -63 -55 -76 -85 -40 -90 15
-2 83 52 245 195 295 261 294 260 279 278 -7 8 -18 15 -24 15 -6 0 -5 -4 3 -9z"/>
<path d="M7266 4311 c-63 -42 -66 -55 -66 -286 0 -191 2 -213 20 -242 41 -68
43 -68 360 -68 282 0 285 0 323 23 65 41 68 56 65 297 -3 212 -3 214 -28 240
-50 54 -57 55 -362 55 -260 0 -285 -2 -312 -19z"/>
</g>
</svg>
