<?xml version="1.0" standalone="no"?>
<!DOCTYPE svg PUBLIC "-//W3C//DTD SVG 20010904//EN"
 "http://www.w3.org/TR/2001/REC-SVG-20010904/DTD/svg10.dtd">
<svg version="1.0" xmlns="http://www.w3.org/2000/svg"
 width="1024.000000pt" height="1024.000000pt" viewBox="0 0 1024.000000 1024.000000"
 preserveAspectRatio="xMidYMid meet">
<metadata>
Created by potrace 1.16, written by Peter Selinger 2001-2019
</metadata>
<g transform="translate(0.000000,1024.000000) scale(0.100000,-0.100000)"
fill="#000000" stroke="none">
<path d="M0 5120 l0 -5120 5120 0 5120 0 0 5120 0 5120 -5120 0 -5120 0 0
-5120z m5125 2780 c559 -42 1086 -284 1460 -671 313 -323 513 -674 609 -1066
49 -199 60 -316 53 -555 -7 -248 -34 -412 -107 -628 -91 -272 -225 -516 -403
-730 -58 -70 -264 -274 -342 -340 -273 -230 -683 -421 -1025 -479 -260 -43
-380 -47 -630 -20 -546 60 -1140 377 -1488 795 -291 348 -454 698 -528 1134
-25 145 -26 170 -21 380 5 239 15 313 68 524 60 239 175 485 311 670 18 25 39
47 46 50 7 3 203 9 435 12 273 4 445 11 487 19 36 7 53 14 38 14 -16 1 -28 5
-28 10 0 13 28 33 33 24 3 -5 19 -10 36 -11 24 -2 34 3 41 20 6 13 15 31 22
40 10 13 9 20 -4 35 -8 10 -19 28 -22 41 -4 12 -15 22 -23 22 -9 0 -13 3 -10
6 11 11 -13 44 -33 44 -10 0 -20 5 -22 10 -4 12 -40 22 -88 24 -52 2 -139 46
-139 71 -1 15 1 17 8 6 7 -10 11 -5 16 18 5 22 12 31 26 31 12 0 19 7 19 20 0
11 -7 20 -16 20 -24 0 -8 17 68 70 39 28 68 50 65 50 -13 0 -222 -122 -296
-172 -41 -28 -97 -61 -126 -74 -56 -26 -175 -44 -175 -27 0 20 166 168 260
232 120 82 372 211 503 257 318 110 595 148 922 124z m-2285 -229 c14 -28 13
-56 -5 -71 -9 -7 -66 -13 -152 -16 -205 -8 -183 12 -183 -163 0 -161 -6 -181
-54 -181 -52 0 -57 15 -63 176 -6 158 -4 171 45 233 25 32 68 38 249 40 141 1
153 0 163 -18z m4566 -33 l34 -38 0 -129 c0 -136 -8 -161 -48 -161 -45 1 -61
47 -62 173 0 74 -1 78 -26 87 -14 6 -63 10 -109 10 -124 0 -162 21 -136 76
l11 25 151 -3 151 -3 34 -37z m-3546 -452 c26 -12 57 -63 45 -74 -4 -4 -149
-7 -323 -7 l-317 0 3 25 c4 40 36 64 95 70 84 10 469 -1 497 -14z m-1391
-3346 c6 -28 11 -56 11 -61 0 -6 7 -25 15 -43 12 -25 36 -43 110 -80 59 -30
109 -64 131 -89 41 -45 92 -147 101 -203 5 -33 4 -37 -12 -30 -10 3 -58 11
-107 16 -138 14 -218 73 -281 208 -27 57 -31 80 -35 174 -4 88 -2 112 12 133
26 39 43 31 55 -25z m5055 -2 c57 -76 58 -181 3 -300 -63 -136 -167 -224 -295
-249 -59 -11 -65 -10 -90 8 -37 29 -34 86 10 173 35 68 25 60 208 176 47 30
51 39 69 138 17 94 50 112 95 54z m-4785 5 c42 -3 84 -10 94 -15 17 -9 23 -44
9 -65 -20 -32 -171 -21 -198 15 -7 9 -14 32 -14 51 0 27 3 32 16 27 10 -4 51
-9 93 -13z m4503 -12 c32 -4 60 -10 64 -13 13 -14 -38 -68 -74 -78 -47 -13
-128 -13 -152 0 -20 11 -33 50 -24 74 9 23 82 30 186 17z m-1637 -971 c95 -45
93 -41 51 -95 -20 -26 -36 -53 -36 -59 0 -6 -7 -3 -14 6 -45 60 -213 64 -232
5 -12 -38 26 -69 133 -107 156 -57 193 -94 193 -195 0 -111 -103 -195 -239
-195 -77 0 -119 14 -190 61 l-61 41 29 29 c17 16 33 38 36 49 6 19 7 19 39 -5
101 -77 264 -67 254 14 -3 29 -40 51 -163 97 -104 40 -144 77 -165 157 -15 52
2 105 51 160 71 82 190 95 314 37z m-2517 -203 c7 -206 10 -229 28 -254 43
-58 136 -74 193 -34 53 38 61 79 61 305 l0 203 62 6 c34 3 65 4 69 2 3 -3 4
-109 1 -237 -5 -268 -12 -300 -88 -367 -52 -46 -100 -61 -191 -61 -85 0 -156
31 -208 93 -57 66 -65 111 -65 353 l0 213 63 3 c34 2 63 3 65 2 1 0 6 -103 10
-227z m1060 166 l-3 -68 -100 -3 -101 -3 4 -152 c1 -84 -1 -201 -5 -261 l-8
-110 -60 3 c-33 1 -61 4 -63 6 -2 1 -3 118 -2 259 l1 255 -93 3 -93 3 -3 62
-3 63 253 3 c139 1 259 3 266 5 10 1 12 -14 10 -65z m922 -261 c0 -181 -2
-331 -4 -333 -2 -2 -36 -3 -75 -1 l-71 4 0 322 c0 178 2 325 4 327 3 2 36 5
75 7 l71 3 0 -329z m946 217 c104 -125 172 -211 212 -266 l32 -45 0 206 0 206
64 0 65 0 3 -307 c2 -170 1 -316 -1 -325 -3 -14 -14 -18 -50 -18 -43 0 -50 4
-82 43 -54 64 -241 298 -266 332 l-22 30 -1 -75 c0 -41 -2 -133 -3 -205 l-2
-130 -60 3 c-33 2 -61 4 -61 5 -1 1 -4 147 -6 324 l-3 322 45 3 c25 2 48 1 51
-2 4 -3 42 -48 85 -101z m920 21 c100 -243 224 -554 224 -562 0 -4 -31 -8 -69
-8 l-69 0 -24 63 -24 62 -145 3 -145 3 -20 -63 -19 -63 -68 -9 c-41 -6 -71 -6
-77 0 -10 10 -12 3 111 294 46 107 97 231 115 275 l32 80 59 6 c32 3 64 5 71
5 7 -1 29 -39 48 -86z m-4496 -67 c63 -80 129 -163 146 -182 17 -20 38 -47 47
-61 16 -23 17 -14 17 183 l0 207 69 0 70 0 1 -212 c0 -116 -2 -262 -6 -324
l-7 -112 -44 -4 -45 -3 -143 180 c-78 99 -152 189 -164 199 l-21 19 0 -90 c0
-49 -3 -138 -7 -196 l-6 -107 -64 0 -63 0 0 325 0 325 53 0 52 0 115 -147z
m2159 137 c52 -15 105 -56 132 -103 19 -34 24 -56 24 -112 -1 -83 -18 -124
-77 -175 l-39 -35 65 -99 c36 -54 66 -102 66 -107 0 -5 -15 -9 -32 -9 -18 0
-50 -3 -70 -6 -33 -6 -39 -4 -47 18 -5 13 -27 53 -50 87 -22 35 -43 72 -46 82
-5 15 -16 19 -58 19 -71 0 -81 -8 -73 -60 3 -23 4 -64 0 -91 l-7 -49 -63 0
-64 0 0 303 c0 166 -3 312 -6 325 l-6 22 158 0 c88 0 174 -4 193 -10z m3051
-14 c87 -46 123 -102 124 -196 0 -55 -5 -74 -27 -113 -53 -90 -130 -127 -263
-127 l-84 0 0 -77 c0 -119 -3 -123 -64 -123 -28 0 -56 4 -63 8 -9 6 -13 92
-15 331 l-3 323 180 -4 c152 -2 185 -6 215 -22z"/>
<path d="M6349 7022 c-141 -142 -158 -166 -149 -202 6 -24 6 -24 15 -5 4 11 7
26 6 34 -1 7 2 10 7 7 11 -7 96 67 177 154 76 82 96 100 108 100 6 0 2 9 -8
20 -10 11 -21 20 -24 20 -3 0 -63 -58 -132 -128z"/>
<path d="M5555 7038 c-18 -40 -42 -84 -53 -97 -22 -27 -29 -27 -139 13 -79 29
-236 56 -325 56 -54 0 -57 1 -61 28 -4 24 -5 25 -11 7 -6 -18 -22 -23 -109
-33 -56 -7 -145 -23 -197 -35 -93 -22 -97 -23 -125 -5 -17 10 -40 18 -52 18
-12 0 -29 7 -37 16 -22 22 -119 28 -196 11 l-65 -13 80 -13 c89 -15 129 -29
162 -58 l23 -20 -48 -30 c-26 -17 -79 -49 -119 -72 -207 -119 -380 -311 -506
-561 -69 -138 -119 -322 -137 -505 -12 -119 -12 -121 22 -292 19 -95 31 -170
26 -167 -4 3 -6 -21 -3 -53 12 -162 19 -212 36 -250 11 -23 19 -51 19 -62 0
-12 4 -21 8 -21 24 0 57 -105 67 -212 1 -10 4 -21 8 -24 12 -12 8 -22 -10 -27
-17 -4 -17 -5 0 -6 9 0 17 -7 17 -15 0 -7 7 -19 15 -26 14 -11 6 -23 -62 -90
-43 -43 -91 -93 -106 -111 -53 -65 -177 -238 -177 -247 0 -11 66 -72 78 -72
12 0 74 77 133 165 29 44 76 109 104 145 29 36 70 92 92 125 52 77 78 102 86
81 7 -17 -8 -31 -22 -22 -5 3 -11 -4 -15 -17 -4 -16 1 -28 20 -44 14 -13 32
-23 40 -23 8 0 14 -8 15 -17 0 -11 3 -13 6 -5 7 18 31 15 43 -7 16 -32 13 -46
-7 -31 -10 7 2 -7 27 -30 25 -23 76 -58 114 -76 38 -19 90 -47 116 -64 42 -27
142 -68 180 -75 8 -1 29 -8 45 -15 17 -6 59 -16 95 -21 36 -5 90 -14 121 -19
30 -6 98 -10 150 -10 l94 0 23 -38 23 -37 -25 30 c-33 39 -39 30 -15 -24 10
-24 19 -51 19 -60 1 -36 41 -99 99 -156 33 -33 61 -65 61 -70 0 -6 14 -19 31
-29 17 -10 41 -29 52 -42 11 -13 29 -24 39 -24 10 0 26 -4 36 -8 53 -27 71
-38 72 -47 1 -5 -25 -17 -57 -26 -32 -10 -50 -18 -40 -18 10 -1 101 21 201 49
200 54 382 131 496 211 34 24 74 52 89 62 22 15 23 18 6 16 -53 -4 -60 13 -20
51 36 34 123 200 131 250 4 26 10 37 15 29 4 -7 6 -27 3 -44 -4 -27 -3 -26 11
9 8 21 13 42 10 46 -3 5 5 6 17 2 14 -3 19 -2 14 6 -4 7 -1 12 8 12 8 0 21 3
30 6 11 4 16 1 16 -11 0 -13 8 -16 38 -14 76 4 83 2 80 -31 -1 -17 -10 -38
-20 -47 -10 -9 -18 -19 -18 -24 0 -4 66 59 146 139 107 107 158 168 193 227
63 104 68 114 97 192 19 49 21 63 10 53 -14 -11 -16 -8 -16 26 -1 22 -9 61
-18 88 l-17 50 55 56 c31 33 71 89 93 131 35 70 37 81 43 194 7 136 -8 311
-31 356 -14 26 -20 29 -64 29 -87 0 -111 -10 -180 -75 -36 -34 -80 -71 -98
-83 l-32 -22 -40 77 c-42 80 -46 119 -12 130 9 2 26 10 38 16 16 9 57 10 150
4 70 -4 179 -9 242 -10 l114 -2 -7 135 c-3 74 -13 167 -21 205 -8 39 -18 85
-22 103 -3 19 -11 36 -18 39 -7 2 -11 14 -8 26 3 16 2 18 -5 8 -8 -11 -10 -11
-15 0 -3 8 -8 -5 -12 -28 -6 -33 -12 -43 -26 -43 -11 0 -19 6 -19 13 0 23 -68
51 -116 48 -43 -2 -44 -2 -44 28 0 24 -4 31 -20 31 -13 0 -20 7 -20 20 0 13
-7 20 -20 20 -17 0 -20 7 -20 40 0 22 5 40 10 40 6 0 10 18 10 40 0 22 -4 40
-10 40 -5 0 -10 9 -10 20 0 11 5 20 10 20 6 0 10 5 10 11 0 6 -8 8 -17 5 -10
-3 0 10 21 29 22 19 45 35 53 35 7 0 13 6 13 13 0 9 3 8 9 -2 6 -9 11 -10 15
-3 8 13 36 4 36 -10 0 -6 -8 -4 -17 3 -16 13 -17 12 -4 -3 7 -10 17 -15 22
-13 4 3 12 -3 18 -12 18 -31 12 -4 -10 42 -12 25 -25 45 -29 45 -20 0 -240
-182 -330 -274 -76 -76 -100 -96 -100 -80 0 12 -15 41 -33 65 -18 24 -52 81
-75 126 -44 88 -69 129 -116 188 -27 34 -29 40 -18 68 10 27 9 34 -7 50 -20
21 -41 16 -41 -9 0 -9 -40 15 -102 64 -156 120 -380 252 -429 252 -5 0 -25
-33 -44 -72z m170 -28 c-4 -6 5 -10 19 -10 14 0 35 -9 47 -21 11 -11 27 -18
35 -15 8 3 14 0 14 -7 0 -7 9 -19 20 -27 11 -8 20 -18 20 -22 0 -4 -9 -8 -20
-8 -13 0 -20 -7 -20 -20 0 -11 -7 -20 -15 -20 -8 0 -15 -4 -15 -10 0 -15 -43
-35 -48 -21 -2 6 -8 11 -14 11 -5 0 -21 9 -35 19 -13 11 -31 17 -39 14 -8 -3
-14 -1 -14 5 0 6 6 12 13 15 17 6 -4 28 -30 30 -18 1 -19 4 -10 31 14 41 28
54 51 48 13 -3 17 -1 12 6 -5 8 1 12 14 12 12 0 18 -4 15 -10z m-460 -184
c130 -35 336 -135 442 -215 283 -214 453 -555 453 -911 0 -140 -58 -395 -115
-510 -85 -169 -264 -381 -411 -486 -166 -120 -449 -207 -669 -206 -163 0 -415
66 -548 142 -423 244 -668 688 -627 1141 16 182 44 292 103 414 172 350 473
572 882 651 47 9 122 12 230 10 133 -3 177 -9 260 -30z m1095 -1158 c0 -5 -4
-7 -9 -4 -9 6 -18 -28 -25 -89 -2 -16 -10 -59 -19 -95 -31 -131 -29 -259 7
-341 6 -13 -6 -24 -48 -49 -89 -50 -152 -155 -162 -271 -9 -87 -30 -119 -80
-119 -26 0 -32 4 -28 15 5 11 2 13 -10 9 -9 -3 -16 -14 -16 -24 0 -11 -5 -22
-12 -26 -8 -5 -9 3 -5 29 6 38 0 46 -21 25 -20 -20 -15 9 6 31 33 37 41 49 35
54 -3 3 15 27 40 54 42 45 135 194 178 286 25 56 119 436 119 485 0 21 3 41 6
44 8 9 44 -3 44 -14z m163 -221 c48 -150 59 -204 52 -249 -9 -49 -28 -68 -71
-68 -65 0 -113 82 -114 190 0 76 29 207 55 246 16 25 19 26 30 10 7 -9 29 -67
48 -129z m381 -49 c1 -114 -3 -175 -13 -202 -15 -44 -122 -156 -148 -156 -17
1 -93 63 -93 76 0 3 20 31 44 62 50 65 89 138 83 155 -2 7 -32 -28 -68 -76
-51 -70 -65 -84 -71 -70 -10 27 -9 148 2 177 5 14 50 57 99 96 50 39 100 85
112 101 19 28 23 29 37 15 12 -12 15 -46 16 -178z m-378 -379 c32 -6 76 -22
96 -36 79 -54 132 -178 110 -259 -8 -32 -10 -34 -11 -13 -1 32 -31 49 -31 19
0 -14 -7 -20 -23 -20 -13 0 -28 -5 -35 -12 -16 -16 -82 -38 -117 -38 -17 0
-44 -4 -60 -9 -48 -13 -164 5 -192 31 l-23 21 0 -39 -1 -39 -16 45 c-21 59
-13 174 17 234 25 54 78 96 140 112 58 16 73 16 146 3z m-404 -456 c29 -65 36
-206 15 -289 -21 -82 -72 -166 -147 -241 -136 -138 -349 -187 -534 -123 -69
23 -211 108 -247 147 -72 76 -159 265 -130 282 7 5 60 16 119 25 58 10 149 30
201 46 53 16 146 38 206 50 61 12 117 25 126 30 9 5 34 12 55 16 42 8 208 63
264 88 19 8 39 15 43 16 4 0 18 -21 29 -47z"/>
<path d="M4860 6485 c-97 -19 -215 -61 -305 -108 -167 -88 -323 -292 -377
-495 -45 -173 -20 -382 66 -557 109 -219 297 -366 551 -430 165 -42 313 -29
485 42 127 52 188 93 281 190 69 72 94 107 137 194 71 143 96 258 89 419 -9
206 -82 367 -233 515 -198 192 -455 278 -694 230z m364 -316 c171 -47 213
-249 73 -346 -34 -24 -50 -28 -107 -28 -57 0 -74 5 -115 30 -82 51 -119 159
-80 234 21 41 90 98 133 109 50 13 52 13 96 1z m233 -475 c40 -30 45 -76 13
-117 -26 -33 -53 -41 -82 -26 -73 38 -88 90 -39 140 36 36 64 37 108 3z"/>
<path d="M5706 4336 c6 -46 114 -289 134 -301 11 -7 120 99 120 117 0 7 -26
31 -57 53 -31 22 -70 51 -87 65 -66 54 -71 56 -41 15 17 -22 33 -41 37 -43 4
-2 5 -9 2 -17 -7 -18 16 -31 27 -14 6 10 9 5 9 -16 0 -17 -6 -39 -14 -50 -20
-29 -3 -68 26 -63 13 2 22 9 20 16 -1 8 2 11 9 7 7 -5 2 -16 -15 -33 -31 -31
-37 -26 -61 48 -10 30 -22 60 -27 67 -21 27 -49 90 -54 125 -4 21 -13 46 -21
55 -12 16 -13 12 -7 -31z"/>
<path d="M3310 6639 c-37 -15 -60 -49 -60 -92 0 -31 7 -46 35 -74 l35 -35 131
4 131 3 34 37 c43 48 45 86 5 130 l-29 33 -129 2 c-70 2 -139 -2 -153 -8z"/>
<path d="M6782 2602 c-23 -59 -42 -113 -42 -119 0 -10 26 -13 95 -13 52 0 95
4 95 8 0 10 -90 215 -98 224 -4 3 -26 -42 -50 -100z"/>
<path d="M4400 2646 l0 -106 33 1 c126 3 182 32 193 101 5 30 1 41 -24 69 -29
33 -33 34 -116 38 l-86 3 0 -106z"/>
<path d="M7400 2645 l0 -105 63 1 c89 1 128 17 151 63 23 47 15 97 -21 126
-21 16 -40 20 -109 20 l-84 0 0 -105z"/>
</g>
</svg>
